# xmcd CD database file
#
# Track frame offsets:
#	150
#	17300
#	39356
#	60851
#	81785
#	105821
#	127328
#	150376
#	177634
#	197158
#	215467
#
# Disc length: 3180 seconds
#
# Revision: 0
# Processed by: cddbd v1.5.2PL0 Copyright (c) Steve Scherf et al.
# Submitted via: CDex 1.70beta2
#
DISCID=820c6a0b
DTITLE=Carol Patrick - Couleurs Electro Jazz
DYEAR=2007
DGENRE=Jazz
TTITLE0=Summertime
TTITLE1=Bleuciel
TTITLE2=H5N1
TTITLE3=Tarmack
TTITLE4=Neo
TTITLE5=Katsumi
TTITLE6=Ile de Pâques
TTITLE7=Shambahla
TTITLE8=Villa Schmidt
TTITLE9=New Morning
TTITLE10=Eden
EXTD=YEAR: 2007
EXTT0=
EXTT1=
EXTT2=
EXTT3=
EXTT4=
EXTT5=
EXTT6=
EXTT7=
EXTT8=
EXTT9=
EXTT10=
PLAYORDER=
